<?xml version="1.0" encoding="utf-8"?>
<!-- Generator: Adobe Illustrator 25.2.3, SVG Export Plug-In . SVG Version: 6.00 Build 0)  -->
<svg version="1.1" id="Layer_1" xmlns="http://www.w3.org/2000/svg" xmlns:xlink="http://www.w3.org/1999/xlink" x="0px" y="0px"
	 viewBox="0 0 641.74 169.5" style="enable-background:new 0 0 641.74 169.5;" xml:space="preserve">
<style type="text/css">
	.st0{fill:#FFFFFF;}
</style>
<g>
	<g>
		<g>
			<path class="st0" d="M378.46,93.85c0-2.57,1.71-4.28,4.27-4.28c2.56,0,4.27,1.71,4.27,4.28c0,2.56-1.71,4.27-4.27,4.27
				C380.17,98.11,378.46,96.4,378.46,93.85z M379.25,93.85c0,2.07,1.39,3.46,3.47,3.46c2.07,0,3.47-1.39,3.47-3.46
				c0-2.08-1.4-3.48-3.47-3.48C380.64,90.36,379.25,91.76,379.25,93.85z M380.94,96.14v-4.5h1.84c1.17,0,1.88,0.34,1.88,1.4
				c0,0.78-0.41,1.19-1.12,1.34c0.17,0.09,0.32,0.21,0.44,0.41l0.84,1.35h-0.95l-0.78-1.23c-0.26-0.4-0.48-0.46-1.03-0.47h-0.28v1.7
				H380.94z M381.78,93.74h0.94c0.58,0,1.01-0.11,1.01-0.72c0-0.6-0.43-0.67-1.01-0.67h-0.94V93.74z"/>
		</g>
		<path class="st0" d="M28.07,149.18V90.43h8.66l0.86,5.57c3-4.37,7.63-6.43,13.72-6.43c10.89,0,18.78,6.69,18.78,21.61
			c0,15.01-7.89,21.7-18.78,21.7c-6,0-10.64-2.06-13.72-6.35v22.64H28.07z M37.59,115.99c1.37,6.43,5.57,9.18,11.06,9.18
			c6.6,0,11.49-4.12,11.49-13.98c0-9.78-4.89-13.89-11.49-13.89c-5.49,0-9.69,2.74-11.06,9.18V115.99z"/>
		<path class="st0" d="M94.18,89.58c11.15,0,20.07,6.18,20.5,17.58v6.43h-31.9c0.6,7.03,4.12,11.83,11.58,11.83
			c4.37,0,8.06-1.63,9.86-5.92h9.78c-1.89,8.58-8.92,13.38-19.81,13.38c-12.26,0-21.35-6.69-21.35-21.61S81.92,89.58,94.18,89.58z
			 M104.73,107.07c0-6.35-4.55-9.95-10.72-9.95c-6.6,0-10.03,4.03-10.98,9.95H104.73z"/>
		<path class="st0" d="M127.17,90.43l0.69,6.95c2.74-4.8,7.38-7.8,14.92-7.8c9.6,0,15.44,5.06,15.35,17.07v25.39h-9.61v-24.87
			c0-7.12-4.2-9.43-9.26-9.43c-7.98,0-11.23,6.6-11.23,16.12v18.18h-9.52V90.43H127.17z"/>
		<path class="st0" d="M180.3,89.58c11.92,0,17.07,5.15,17.67,12.86h-9.35c-0.43-3.77-2.66-5.83-8.23-5.83
			c-5.4,0-8.15,1.89-8.15,4.97c0,9.61,26.76,2.83,26.76,18.87c0,9.09-7.12,12.44-18.52,12.44c-13.89,0-18.7-5.23-19.12-13.21h9.69
			c0.34,3.77,2.74,6.17,9.26,6.17c6.35,0,8.92-1.89,8.92-5.14c0-8.41-26.84-1.54-26.84-18.78C162.38,93.61,169.84,89.58,180.3,89.58
			z"/>
		<path class="st0" d="M223.41,89.58c12.52,0,21.53,6.78,21.53,21.7s-9,21.61-21.53,21.61c-12.44,0-21.53-6.69-21.53-21.61
			S210.97,89.58,223.41,89.58z M223.41,125.17c6.6,0,11.49-4.03,11.49-13.89s-4.89-13.89-11.49-13.89c-6.6,0-11.49,4.03-11.49,13.89
			S216.8,125.17,223.41,125.17z"/>
		<path class="st0" d="M324.42,103.9c0.77-6.69-2.4-9.09-9.86-9.09c-7.29,0-11.23,2.23-12.52,7.72h-5.14
			c1.63-8.06,7.89-12.26,18.27-12.26c11.49,0,15.87,4.03,14.32,13.89l-2.74,17.32c-0.69,4.12,0,5.57,2.4,5.57h1.89l-0.77,4.97h-1.89
			c-6,0-7.12-2.92-6.95-7.46c-3.34,4.8-8.83,8.06-16.89,8.06c-6.78,0-13.38-2.06-11.92-11.15
			C295.26,104.76,321.93,113.76,324.42,103.9z M306.49,128.43c9.35,0,15.01-6.09,16.29-13.89l0.69-4.29
			c-7.55,5.75-23.93,0.86-25.56,11.15C297.15,126.11,300.32,128.43,306.49,128.43z"/>
		<path class="st0" d="M329.51,144.03c4.72,0,8.15-1.29,11.32-6.69l3.17-5.49L333.8,90.86h5.66l8.32,34.82l20.58-34.82h5.57
			l-27.96,47.26c-6.09,10.12-10.89,10.81-17.24,10.81L329.51,144.03z"/>
		<path class="st0" d="M259.55,90.86l-0.6,7.29c3.86-5.4,9.52-7.89,16.38-7.89c10.98,0,17.84,6.35,15.52,21.18
			c-2.32,14.84-11.32,21.18-22.3,21.18c-6.78,0-11.49-2.4-13.72-7.8l-3.86,24.1h-5.15L255,90.86H259.55z M285.36,111.44
			c1.89-12.01-3.52-16.64-11.83-16.64c-7.03,0-13.04,3.34-15.78,11.66l-1.54,9.95c0.17,8.32,4.97,11.66,12.09,11.66
			C276.61,128.08,283.39,123.37,285.36,111.44z"/>
	</g>
</g>
<g>
	<path class="st0" d="M53.97,16.02v3.42H39.13V54.1h-3.64V19.44H20.65v-3.42H53.97z"/>
	<path class="st0" d="M59.29,16.02h3.42v16.69c1.68-3.64,4.82-5.88,10.19-5.88c6.44,0,9.97,3.19,9.97,10.86V54.1h-3.42V37.7
		c0-6.05-3.19-7.9-7.62-7.9c-6.55,0-9.02,5.43-9.13,12.26V54.1h-3.42V16.02z"/>
	<path class="st0" d="M95.13,16.02v5.04h-3.42v-5.04H95.13z M91.71,27.22h3.42V54.1h-3.42V27.22z"/>
	<path class="st0" d="M106.94,27.22l0.34,5.71c1.62-3.81,4.82-6.1,10.3-6.1c6.44,0,10.02,3.19,9.97,10.86V54.1h-3.42V37.7
		c0-6.05-3.19-7.9-7.62-7.9c-6.55,0-9.02,5.43-9.13,12.26V54.1h-3.42V27.22H106.94z"/>
	<path class="st0" d="M139.81,16.02v24.92l13.16-13.72h4.59l-11.14,11.26L159.3,54.1h-4.42l-10.64-13.44l-4.42,4.48v8.96h-3.42
		V16.02H139.81z"/>
	<path class="st0" d="M180.25,16.02h3.42v15.85c1.9-3.47,5.26-5.1,9.58-5.1c7.06,0,12.54,4.2,12.54,13.89s-5.49,13.89-12.54,13.89
		c-4.37,0-7.67-1.68-9.63-5.21l-0.39,4.76h-2.97V16.02z M183.66,43.91c0.95,5.43,4.48,7.62,9.13,7.62c5.38,0,9.41-3.08,9.41-10.86
		s-3.98-10.86-9.41-10.86c-4.65,0-8.18,2.18-9.13,7.62V43.91z"/>
	<path class="st0" d="M223.48,26.83c6.89,0,12.32,3.75,12.66,11.65v2.97h-22.12c0.28,6.33,3.47,10.08,9.46,10.08
		c3.86,0,7-1.51,8.46-5.32h3.64c-1.68,5.77-6.16,8.29-12.1,8.29c-7.56,0-13.05-4.14-13.05-13.83S215.92,26.83,223.48,26.83z
		 M232.49,38.48c-0.11-5.94-3.98-8.68-9.02-8.68c-5.54,0-8.68,3.14-9.3,8.68H232.49z"/>
	<path class="st0" d="M238.26,27.22h3.7l9.02,22.74l9.86-22.74h3.64l-13.38,30.86c-2.91,6.61-5.99,7.06-10.14,7.06v-3.19
		c3.08,0,5.21-0.84,6.72-4.37l1.51-3.58L238.26,27.22z"/>
	<path class="st0" d="M279.65,26.83c7.56,0,12.99,4.14,12.99,13.83S287.2,54.5,279.65,54.5c-7.56,0-12.99-4.14-12.99-13.83
		S272.08,26.83,279.65,26.83z M279.65,51.53c5.38,0,9.41-3.02,9.41-10.86c0-7.78-3.98-10.86-9.41-10.86
		c-5.43,0-9.41,3.08-9.41,10.86C270.24,48.5,274.21,51.53,279.65,51.53z"/>
	<path class="st0" d="M302.38,27.22l0.34,5.71c1.62-3.81,4.82-6.1,10.3-6.1c6.44,0,10.02,3.19,9.97,10.86V54.1h-3.42V37.7
		c0-6.05-3.19-7.9-7.62-7.9c-6.55,0-9.02,5.43-9.13,12.26V54.1h-3.42V27.22H302.38z"/>
	<path class="st0" d="M342.08,26.83c4.42,0,7.84,1.57,9.8,5.15V16.02h3.36V54.1h-2.97l-0.34-4.82c-1.96,3.58-5.38,5.21-9.86,5.21
		c-7.17,0-12.32-4.14-12.32-13.83S334.92,26.83,342.08,26.83z M333.35,40.66c0,7.84,3.98,10.86,9.41,10.86
		c4.59,0,8.12-2.18,9.13-7.62v-6.5c-1.01-5.43-4.48-7.62-9.13-7.62C337.32,29.8,333.35,32.88,333.35,40.66z"/>
	<path class="st0" d="M379.1,65.19V27.22h2.97l0.39,4.76c1.96-3.58,5.38-5.21,9.86-5.21c7.17,0,12.32,4.2,12.32,13.89
		s-5.15,13.89-12.32,13.89c-4.42,0-7.84-1.62-9.8-5.15v15.79H379.1z M382.52,43.91c0.95,5.43,4.48,7.62,9.13,7.62
		c5.43,0,9.41-3.08,9.41-10.86c0-7.84-4.03-10.86-9.41-10.86c-4.65,0-8.18,2.18-9.13,7.56V43.91z"/>
	<path class="st0" d="M428.49,35.74c-0.22-4.37-2.52-5.94-7.39-5.94c-4.76,0-7.11,1.46-7.39,5.04h-3.36
		c0.22-5.26,3.92-8.01,10.7-8.01c7.5,0,10.75,2.63,10.75,9.07v11.31c0,2.69,0.62,3.64,2.18,3.64h1.23v3.25h-1.23
		c-3.92,0-4.98-1.9-5.32-4.87c-1.68,3.14-4.93,5.26-10.19,5.26c-4.42,0-8.96-1.34-8.96-7.28C409.51,36.3,427.88,42.18,428.49,35.74z
		 M419.31,51.75c6.1,0,9.18-3.98,9.18-9.07v-2.8c-4.31,3.75-15.51,0.56-15.51,7.28C412.98,50.24,415.28,51.75,419.31,51.75z"/>
	<path class="st0" d="M436,27.22h3.7l9.02,22.74l9.86-22.74h3.64l-13.38,30.86c-2.91,6.61-5.99,7.06-10.14,7.06v-3.19
		c3.08,0,5.21-0.84,6.72-4.37l1.51-3.58L436,27.22z"/>
	<path class="st0" d="M470.55,27.22l0.34,5.38c1.57-3.58,4.48-5.82,9.41-5.82c4.7,0,7.67,2.02,8.74,6.61
		c1.51-4.03,4.48-6.61,9.8-6.61c5.88,0,9.18,3.25,9.13,10.92V54.1h-3.36V37.7c0-6.05-2.91-7.9-6.89-7.9
		c-5.88,0-8.12,5.43-8.23,12.26V54.1h-3.42V37.7c0-6.05-2.86-7.9-6.83-7.9c-5.88,0-8.12,5.43-8.23,12.26V54.1h-3.42V27.22H470.55z"
		/>
	<path class="st0" d="M527.78,26.83c6.89,0,12.32,3.75,12.66,11.65v2.97h-22.12c0.28,6.33,3.47,10.08,9.46,10.08
		c3.86,0,7-1.51,8.46-5.32h3.64c-1.68,5.77-6.16,8.29-12.1,8.29c-7.56,0-13.05-4.14-13.05-13.83S520.22,26.83,527.78,26.83z
		 M536.79,38.48c-0.11-5.94-3.98-8.68-9.02-8.68c-5.54,0-8.68,3.14-9.3,8.68H536.79z"/>
	<path class="st0" d="M550.12,27.22l0.34,5.71c1.62-3.81,4.82-6.1,10.3-6.1c6.44,0,10.02,3.19,9.97,10.86V54.1h-3.42V37.7
		c0-6.05-3.19-7.9-7.62-7.9c-6.55,0-9.02,5.43-9.13,12.26V54.1h-3.42V27.22H550.12z"/>
	<path class="st0" d="M576.95,29.97v-2.74h4.82v-8.06h3.36v8.06h7.67v2.74h-7.67v16.24c0,4.09,0.73,4.93,4.14,4.93h3.86v2.97h-4.7
		c-4.54,0-6.66-1.96-6.66-7.56V29.97H576.95z"/>
	<path class="st0" d="M608.53,26.83c6.66,0,9.86,2.86,10.25,7.73h-3.36c-0.39-3.19-2.35-4.76-6.89-4.76c-4.31,0-6.89,1.4-6.89,4.48
		c0,8.06,17.81,2.3,17.81,12.49c0,5.66-3.92,7.73-10.81,7.73c-7.73,0-10.86-2.97-11.14-8.01h3.53c0.28,3.3,2.18,5.04,7.56,5.04
		c5.21,0,7.39-1.57,7.39-4.65c0-6.83-17.81-1.29-17.81-12.43C598.17,29.02,602.54,26.83,608.53,26.83z"/>
</g>
</svg>
